<svg id="Layer_1" data-name="Layer 1" xmlns="http://www.w3.org/2000/svg" viewBox="0 0 102.98 25.09"><defs><style>.cls-1{fill:#ee4266;}</style></defs><title>wordmark</title><path class="cls-1" d="M15,4.87c0,1.1,0,2.21,0,3.32s-.13,2.18-.25,3.18a17.19,17.19,0,0,1-.45,2.44c-.13.39-.28.77-.44,1.17a8.65,8.65,0,0,1-.56,1.1,5.67,5.67,0,0,1-1.08,1.31,7,7,0,0,1-1.38,1A7.38,7.38,0,0,1,9.25,19a7.23,7.23,0,0,1-1.65.24H7.31a6.82,6.82,0,0,1-4.84-1.95,6.64,6.64,0,0,1-1.31-1.69A8.51,8.51,0,0,1,.4,13.69a10.4,10.4,0,0,1-.34-2C0,11,0,10.29,0,9.58c0-.33,0-.73,0-1.22s0-1,0-1.53V5.3C0,4.8,0,4.37,0,4V3.3a7.69,7.69,0,0,1,0-.83,5.44,5.44,0,0,1,.15-.84A2.54,2.54,0,0,1,.56.83,1.74,1.74,0,0,1,1.39.18,2.87,2.87,0,0,1,2.4,0a2.6,2.6,0,0,1,1,.22,2.11,2.11,0,0,1,.83.64,1.94,1.94,0,0,1,.25.56,3.28,3.28,0,0,1,.09.52c0,.58,0,1.24.06,2s0,1.43,0,2.11,0,1.31,0,1.88,0,1,0,1.25a22.91,22.91,0,0,0,.15,2.75,4.15,4.15,0,0,0,.65,1.89,1.87,1.87,0,0,0,1,.8,3.13,3.13,0,0,0,.9.14l.33,0a3.06,3.06,0,0,0,1.14-.42,2.32,2.32,0,0,0,.89-1,2.7,2.7,0,0,0,.23-.58,4.08,4.08,0,0,0,.15-.63c.06-.62.12-1.37.17-2.23s.1-1.76.13-2.66.05-1.8.05-2.67,0-1.66,0-2.36a2.55,2.55,0,0,1,.34-1.07,2.55,2.55,0,0,1,.71-.72A2.36,2.36,0,0,1,12.69,0,2,2,0,0,1,13.8.38a2.83,2.83,0,0,1,.63.61,2.63,2.63,0,0,1,.4.92A23.63,23.63,0,0,1,15,4.87Z"/><path class="cls-1" d="M27.62,16c0,.21,0,.46,0,.74a5.62,5.62,0,0,1-.07.92,2.78,2.78,0,0,1-.27.87,1.19,1.19,0,0,1-.83.61,3.22,3.22,0,0,1-.72.09,1.67,1.67,0,0,1-.32,0,1.53,1.53,0,0,1-.75-.34,1.55,1.55,0,0,1-.42-.63,5,5,0,0,1-.19-.7c0-.21-.07-.44-.1-.7s-.05-.52-.06-.78l0-.76c0-.26,0-.49,0-.7s0-.68,0-1.07a10.83,10.83,0,0,1,0-1.14,2.12,2.12,0,0,0-.51-1.54,1.52,1.52,0,0,0-1.14-.43l-.26,0a2.14,2.14,0,0,0-1.21.55,1.39,1.39,0,0,0-.46,1.12v.63c0,.2,0,.39,0,.59s0,.38,0,.6V16.5a4.53,4.53,0,0,1-.26,1.68,1.73,1.73,0,0,1-.89,1.06,1.29,1.29,0,0,1-.58.13,2.06,2.06,0,0,1-.94-.26,1.5,1.5,0,0,1-.6-.57,2.79,2.79,0,0,1-.31-.68,4.23,4.23,0,0,1-.13-.71l0-.6q-.07-.87-.09-1.62c0-.49,0-1,0-1.59V9.63c0-.39,0-.81,0-1.25A3.24,3.24,0,0,1,16.58,7a1.69,1.69,0,0,1,.88-.92,1.9,1.9,0,0,1,.76-.17,1.68,1.68,0,0,1,.45.06,2,2,0,0,1,.87.36A1.64,1.64,0,0,1,20,7a2.24,2.24,0,0,1,.14.46l.09-.07a4.37,4.37,0,0,1,.88-.51A4.76,4.76,0,0,1,22,6.56a3.36,3.36,0,0,1,.66-.09,5.28,5.28,0,0,1,2.11.46,4.81,4.81,0,0,1,1.76,1.31,4.23,4.23,0,0,1,.62,1.08,5.29,5.29,0,0,1,.3,1.12,7.35,7.35,0,0,1,.12,1.14l.05,1.12A20.57,20.57,0,0,1,27.62,16Z"/><path class="cls-1" d="M39.87,2.62a2.94,2.94,0,0,0-.17-1,2,2,0,0,0-.51-.79,1.82,1.82,0,0,0-.83-.45,1.86,1.86,0,0,0-.42,0,2.53,2.53,0,0,0-.64.09,1.84,1.84,0,0,0-.89.51,1.71,1.71,0,0,0-.4.78,3.73,3.73,0,0,0-.09.84v5H34.75a6.51,6.51,0,0,0-2.37.4,5,5,0,0,0-3.06,3.14A6.54,6.54,0,0,0,29,13.54,5.75,5.75,0,0,0,30.85,18a7.18,7.18,0,0,0,4.65,1.4h1.76a4.79,4.79,0,0,0,1.25-.13,1.55,1.55,0,0,0,.87-.54,2.26,2.26,0,0,0,.39-1,11,11,0,0,0,.1-1.57V5.89c0-.36,0-.77,0-1.25S39.88,3.48,39.87,2.62ZM35.92,15.49h-.13a2.28,2.28,0,0,1-.39.06h-.5a2.11,2.11,0,0,1-1.66-.67,2,2,0,0,1-.34-.76,3.2,3.2,0,0,1-.1-.93,2.77,2.77,0,0,1,.2-.86,1.61,1.61,0,0,1,.48-.63,1.79,1.79,0,0,1,1.11-.45h.08a12.57,12.57,0,0,1,1.25.14Z"/><path class="cls-1" d="M52.83,10.4a3.24,3.24,0,0,0-.18-.63A4.71,4.71,0,0,0,51.49,8a6,6,0,0,0-1.68-1.12A6.79,6.79,0,0,0,47,6.32h-.12a5.74,5.74,0,0,0-2.8.75,5.89,5.89,0,0,0-1.76,1.62,6.52,6.52,0,0,0-1,2.58A9.27,9.27,0,0,0,41.16,14a6.39,6.39,0,0,0,.85,2.7,4.46,4.46,0,0,0,2.19,1.83,8.85,8.85,0,0,0,2.8.58h.48A8.69,8.69,0,0,0,49.09,19a7.85,7.85,0,0,0,1.79-.54,4.55,4.55,0,0,0,.59-.29,3.41,3.41,0,0,0,.6-.46,2.91,2.91,0,0,0,.45-.61,1.58,1.58,0,0,0,.21-.79,1.56,1.56,0,0,0-.26-.92,1.48,1.48,0,0,0-.63-.48,1.78,1.78,0,0,0-.61-.11h-.16a3.73,3.73,0,0,0-.72.12c-.56.17-1.1.32-1.62.44a4.91,4.91,0,0,1-1.22.14h-.34a3.93,3.93,0,0,1-.88-.14,2.6,2.6,0,0,1-.76-.32,1.41,1.41,0,0,1-.48-.49.78.78,0,0,1-.09-.27l.95,0,1.17,0H48.2c.37,0,.76,0,1.18,0s.87,0,1.21-.07a3.62,3.62,0,0,0,1-.19,1.75,1.75,0,0,0,.75-.49,2.41,2.41,0,0,0,.47-.86,2.77,2.77,0,0,0,.15-.75,5.21,5.21,0,0,0,0-.79A6.06,6.06,0,0,0,52.83,10.4ZM45.28,11l.21-.34c.07-.09.11-.16.15-.2a2,2,0,0,1,1.08-.66,3.17,3.17,0,0,1,.76-.12h0a1.5,1.5,0,0,1,.64.13,2.68,2.68,0,0,1,.9.73,1.3,1.3,0,0,1,.29.41l0,0Z"/><path class="cls-1" d="M65.34,9.73a1.36,1.36,0,0,1-1.14.85,4.52,4.52,0,0,1-1.07-.15,2.75,2.75,0,0,1-.74-.26,2.87,2.87,0,0,0-.58-.2,3.87,3.87,0,0,0-.48,0,2.3,2.3,0,0,0-.85.14,4.41,4.41,0,0,0-1.06.57,4.25,4.25,0,0,0-.82.82V15c0,.47,0,1,0,1.45A5.15,5.15,0,0,1,58.36,18a2.43,2.43,0,0,1-.77,1.17,2.12,2.12,0,0,1-1.36.42H56a1.54,1.54,0,0,1-1.1-.59,2.17,2.17,0,0,1-.53-1,8.43,8.43,0,0,1-.08-1c0-.36,0-.74,0-1.14s0-.8,0-1.21V9c0-.28,0-.56,0-.85s0-.58.09-.86a4,4,0,0,1,.22-.8,1.54,1.54,0,0,1,.87-.85,2.61,2.61,0,0,1,1-.18h.15a2.09,2.09,0,0,1,1,.23,1.59,1.59,0,0,1,.62.64,2.26,2.26,0,0,1,.22.68l.07,0a5.72,5.72,0,0,1,.89-.45,5,5,0,0,1,.81-.23l.46-.07a7.5,7.5,0,0,1,.82,0h.37a5,5,0,0,1,1.28.25,5.5,5.5,0,0,1,.94.47,3.88,3.88,0,0,1,.86.7,2.28,2.28,0,0,1,.54,1A1.67,1.67,0,0,1,65.34,9.73Z"/><path class="cls-1" d="M75.89,2.62a2.94,2.94,0,0,0-.16-1,2.06,2.06,0,0,0-.52-.79,1.79,1.79,0,0,0-.82-.45,1.93,1.93,0,0,0-.42,0,2.6,2.6,0,0,0-.65.09,1.8,1.8,0,0,0-.88.51,1.62,1.62,0,0,0-.4.78,3.73,3.73,0,0,0-.09.84v5H70.77A6.58,6.58,0,0,0,68.4,8a5.16,5.16,0,0,0-1.89,1.23,5.22,5.22,0,0,0-1.16,1.91A6.34,6.34,0,0,0,65,13.54,5.72,5.72,0,0,0,66.88,18a7.15,7.15,0,0,0,4.64,1.4h1.77a4.84,4.84,0,0,0,1.25-.13,1.55,1.55,0,0,0,.87-.54,2.26,2.26,0,0,0,.39-1,11.07,11.07,0,0,0,.09-1.57V5.89c0-.36,0-.77,0-1.25S75.91,3.48,75.89,2.62ZM72,15.49h-.14a2,2,0,0,1-.38.06h-.5a2.1,2.1,0,0,1-1.66-.67,2.13,2.13,0,0,1-.35-.76,3.58,3.58,0,0,1-.09-.93,2.51,2.51,0,0,1,.2-.86,1.58,1.58,0,0,1,.47-.63,1.81,1.81,0,0,1,1.12-.45h.07c.38,0,.8.07,1.26.14Z"/><path class="cls-1" d="M90,11.05a8.08,8.08,0,0,0-.68-1.72A6.08,6.08,0,0,0,88.16,7.8a5.73,5.73,0,0,0-1.69-1.16,6.5,6.5,0,0,0-1.9-.53c-.24,0-.48,0-.71,0a6.74,6.74,0,0,0-1.26.13,7.21,7.21,0,0,0-1.87.62,5.81,5.81,0,0,0-2,1.59,7.24,7.24,0,0,0-1.27,2.66,7.26,7.26,0,0,0-.18,3,6.8,6.8,0,0,0,1,2.62,6.1,6.1,0,0,0,4.9,2.73c.21,0,.42,0,.64,0a7.22,7.22,0,0,0,1.21-.1,6.54,6.54,0,0,0,1.79-.54A5.08,5.08,0,0,0,88,18a4.71,4.71,0,0,0,1-1.11,9,9,0,0,0,1.1-2.81A6,6,0,0,0,90,11.05ZM87,13.69a1.91,1.91,0,0,1-.28.55,0,0,0,0,1,0,0,.21.21,0,0,1-.07.12,1.9,1.9,0,0,1-.3.4,5.66,5.66,0,0,1-2.13,1.53,1.61,1.61,0,0,1-2-.43c-.13-.11-.24-.23-.37-.36a6,6,0,0,1-1.57-2.69h0a2.73,2.73,0,0,1-.08-.85,2.06,2.06,0,0,1,1.56-1.81,1.5,1.5,0,0,1,1.39.19,1.78,1.78,0,0,1,.35.32,2.78,2.78,0,0,1,.26.34h0a2.82,2.82,0,0,1,.47-.3,2.18,2.18,0,0,1,.61-.2,1.85,1.85,0,0,1,1.33.3A2.45,2.45,0,0,1,87,13.69Z"/><path class="cls-1" d="M102.94,11.73a8.86,8.86,0,0,0-.39-2.24,2.63,2.63,0,0,0-.74-1.24,2.88,2.88,0,0,0-1.08-.6,4.46,4.46,0,0,0-1.23-.17H98.27a13.83,13.83,0,0,0-2.26.2,5.4,5.4,0,0,0-2.19.87,4.82,4.82,0,0,0-1.73,2.11,8.07,8.07,0,0,0-.58,2.6,5.14,5.14,0,0,0,.63,3,5.67,5.67,0,0,0,1.94,2,6,6,0,0,0,2.67.91c.2,0,.41,0,.61,0A6,6,0,0,0,99,19c0,.25-.05.51-.09.77a2.49,2.49,0,0,1-.32,1,1.45,1.45,0,0,1-.79.6,2.57,2.57,0,0,1-.91.16H96.7a3.11,3.11,0,0,1-1.12-.3,1.81,1.81,0,0,1-.74-.61,2.27,2.27,0,0,0-1.14-1,1.44,1.44,0,0,0-.49-.08,1.32,1.32,0,0,0-.7.2,1.76,1.76,0,0,0-.69,1,2.61,2.61,0,0,0,0,1.44,2.83,2.83,0,0,0,.66,1.18,4.59,4.59,0,0,0,1,.86,6.34,6.34,0,0,0,1.23.59A6.51,6.51,0,0,0,96,25a7.33,7.33,0,0,0,1,.07l.6,0a11.16,11.16,0,0,0,1.62-.29,4,4,0,0,0,1.77-1,4.94,4.94,0,0,0,1.06-1.63,7.27,7.27,0,0,0,.46-1.54,12.8,12.8,0,0,0,.22-1.49c0-.53.08-1.06.08-1.56s.06-1.15.09-1.79,0-1.24,0-1.79C103,13.18,103,12.44,102.94,11.73Zm-3.79,3.1a1,1,0,0,1-.22.42,1.2,1.2,0,0,1-.48.29c-.14.05-.28.08-.43.12a2.72,2.72,0,0,1-.42,0,3.09,3.09,0,0,1-1.12-.21,1.57,1.57,0,0,1-.8-.61,2.14,2.14,0,0,1-.36-.78,3.24,3.24,0,0,1-.06-.94,2.75,2.75,0,0,1,.21-.9,1.72,1.72,0,0,1,.48-.67,1.85,1.85,0,0,1,.58-.3,3.45,3.45,0,0,1,.8-.17h.86a4.71,4.71,0,0,1,.71.12s0,0,.08.12a2.93,2.93,0,0,1,.13.58c0,.24,0,.48.06.74s0,.52,0,.74,0,.55,0,.81A2.24,2.24,0,0,1,99.15,14.83Z"/><path class="cls-1" d="M83.77,11h0v0Z"/><path class="cls-1" d="M91.08,8.94c2.76,0,2.76-4.29,0-4.29s-2.77,4.29,0,4.29Z"/><path class="cls-1" d="M79,6.43c2.76,0,2.76-4.29,0-4.29s-2.77,4.29,0,4.29Z"/><path class="cls-1" d="M85.69,5.33c2.77,0,2.77-4.29,0-4.29s-2.76,4.29,0,4.29Z"/></svg>